<svg xmlns="http://www.w3.org/2000/svg" viewBox="0 0 1600 1000" role="img" aria-label="Graceful deer in a sunlit pine meadow in bright daylight">
  <defs>
    <linearGradient id="deerSky" x1="0" y1="0" x2="0" y2="1">
      <stop offset="0%" stop-color="#38bdf8"/>
      <stop offset="60%" stop-color="#a7f3d0"/>
      <stop offset="100%" stop-color="#fef08a"/>
    </linearGradient>
    <linearGradient id="deerSun" x1="0" y1="0" x2="1" y2="1">
      <stop offset="0%" stop-color="#fffde7"/>
      <stop offset="50%" stop-color="#fbbf24"/>
      <stop offset="100%" stop-color="#f59e0b"/>
    </linearGradient>
  </defs>
  <rect width="1600" height="1000" fill="url(#deerSky)"/>
  <!-- Morning Sun -->
  <circle cx="330" cy="235" r="150" fill="#fde047" opacity=".35"/>
  <circle cx="330" cy="235" r="120" fill="url(#deerSun)"/>
  <!-- Sunlit Pine Silhouettes -->
  <g stroke="#047857" stroke-width="42" stroke-linecap="round" opacity=".8">
    <path d="M130 0v660"/>
    <path d="M340 0v570"/>
    <path d="M1260 0v650"/>
    <path d="M1480 0v760"/>
  </g>
  <!-- Rolling Sun-kissed Hills -->
  <path d="M0 710c290-100 550-9 820-106s447-115 780-31v427H0Z" fill="#10b981"/>
  <path d="M0 835c240-80 480 38 720-43s550-154 880-33v241H0Z" fill="#059669"/>
  <!-- Golden Deer in Sunlit Forest -->
  <path d="M790 716c-84 0-131-49-131-116 0-58 35-100 92-112l-8-99 35 61 18-89 17 89 43-61-23 105c54 23 83 66 83 121 0 62-48 101-126 101Z" fill="#d97706"/>
  <path d="M698 540c-67-34-107-92-120-174m139 83c-17-76-7-137 31-184m59 184c25-77 20-138-13-184m43 221c62-41 99-100 108-179" fill="none" stroke="#b45309" stroke-width="16" stroke-linecap="round"/>
  <ellipse cx="753" cy="540" rx="7" ry="10" fill="#1e1b4b"/>
  <ellipse cx="824" cy="540" rx="7" ry="10" fill="#1e1b4b"/>
  <path d="M775 579c18 11 35 11 52 0" fill="none" stroke="#1e1b4b" stroke-width="8" stroke-linecap="round"/>
</svg>
